<svg viewBox="0 0 4888 5270" fill="transparent" xmlns="http://www.w3.org/2000/svg">
<g id="Group 1918">
<path id="Vector" d="M1730.43 4210.74L2401 5216L3071.57 4210.74H4412.71C4501.64 4210.74 4586.92 4175.41 4649.8 4112.53C4712.68 4049.64 4748 3964.36 4748 3875.43V859.976C4748 815.958 4739.32 772.372 4722.47 731.709C4705.62 691.046 4680.92 654.103 4649.78 622.994C4618.64 591.884 4581.67 567.217 4541 550.402C4500.32 533.588 4456.73 524.956 4412.71 525H389.286C300.362 525 215.081 560.327 152.203 623.21C89.3246 686.093 54 771.381 54 860.311V3875.76C54 3964.69 89.3246 4049.98 152.203 4112.86C215.081 4175.75 300.362 4211.07 389.286 4211.07H1730.43V4210.74Z" stroke="url(#paint0_linear_261_124)" stroke-width="107" stroke-linecap="square" stroke-linejoin="round"/>
<g id="About" filter="url(#filter0_d_261_124)">
<path d="M1259.44 1921.91H1274.75L1280.93 1907.91L1336.8 1781.52H1616.44L1672.31 1907.91L1678.49 1921.91H1693.8H1805.24H1841.26L1826.75 1888.94L1554.48 1270.47L1548.3 1256.44H1532.97H1421.53H1406.23L1400.04 1270.44L1126.51 1888.91L1111.91 1921.91H1148H1259.44ZM1976.33 1921.91H1999.83V1898.41V1881.42C2040.94 1912.99 2086.8 1929.5 2137.15 1929.5C2204.75 1929.5 2263.16 1903.39 2311.25 1852.59C2359.75 1801.36 2383.53 1736.76 2383.53 1660.64C2383.53 1584.43 2359.25 1520.45 2309.6 1470.82C2261.11 1421.5 2200.56 1396.83 2129.56 1396.83C2079.51 1396.83 2036.16 1413.93 1999.83 1446.49V1242V1218.5H1976.33H1877.55H1854.05V1242V1898.41V1921.91H1877.55H1976.33ZM2200.09 1758.08L2200.08 1758.09C2176.72 1782.13 2148.63 1793.97 2114.36 1793.97C2082.16 1793.97 2055.43 1782.42 2032.8 1758.47C2010.3 1733.83 1998.56 1702.65 1998.56 1663.17C1998.56 1624.58 2010.26 1593.75 2032.92 1569L2033.03 1568.88L2033.14 1568.76C2055.82 1543.27 2082.84 1531.1 2115.63 1531.1C2148.67 1531.1 2176.31 1543.07 2199.85 1568L2199.97 1568.13L2200.09 1568.25C2224.14 1592.98 2236.49 1624.02 2236.49 1663.17C2236.49 1702.31 2224.14 1733.35 2200.09 1758.08ZM2778.86 1757.84L2778.73 1757.96L2778.61 1758.09C2755.54 1781.83 2726.34 1793.97 2689.09 1793.97C2652.06 1793.97 2622.93 1781.56 2599.8 1757.07L2599.57 1756.82L2599.32 1756.57C2576.57 1733.85 2564.43 1703.52 2564.43 1663.17C2564.43 1622.83 2576.57 1591.91 2599.57 1568.24C2622.64 1544.51 2651.84 1532.36 2689.09 1532.36C2726.34 1532.36 2755.54 1544.51 2778.61 1568.24L2778.73 1568.37L2778.86 1568.49C2802.59 1592.2 2815.02 1623.04 2815.02 1663.17C2815.02 1703.29 2802.59 1734.13 2778.86 1757.84ZM2495.19 1853.07L2495.27 1853.14L2495.34 1853.21C2547.35 1904.22 2612.5 1929.5 2689.09 1929.5C2765.81 1929.5 2831.01 1903.71 2882.99 1851.8L2883.13 1851.66L2883.27 1851.51C2934.63 1798.39 2960.8 1735.26 2960.8 1663.17C2960.8 1588.82 2934.8 1525.39 2882.91 1474.46C2830.95 1422.6 2765.77 1396.83 2689.09 1396.83C2612.41 1396.83 2547.23 1422.6 2495.27 1474.45C2443.38 1525.39 2417.38 1588.81 2417.38 1663.17C2417.38 1737.55 2443.39 1801.33 2495.19 1853.07ZM3378.79 1404.42H3355.29V1427.92V1682.14C3355.29 1719.54 3344.59 1745.71 3325.76 1763.87C3305.97 1782.95 3281.56 1792.7 3250.89 1792.7C3219.94 1792.7 3200.58 1783.55 3188.28 1768.67C3175.26 1752.92 3166.75 1726.71 3166.75 1685.93V1427.92V1404.42H3143.25H3044.47H3020.97V1427.92V1716.29C3020.97 1781.09 3038.17 1834.54 3075.77 1873.08C3113.05 1911.3 3162.6 1929.5 3221.76 1929.5C3258.15 1929.5 3292.27 1919.89 3323.7 1900.89C3335.1 1894.19 3345.63 1886.63 3355.29 1878.23V1898.41V1921.91H3378.79H3478.83H3502.33V1898.41V1427.92V1404.42H3478.83H3378.79ZM3766.81 1746.64V1531.1H3867.41H3890.91V1507.6V1427.92V1404.42H3867.41H3766.81V1279.94V1256.44H3743.31H3644.53H3621.03V1279.94V1404.42H3585.01H3561.51V1427.92V1507.6V1531.1H3585.01H3621.03V1744.11C3621.03 1797.4 3637.61 1842.78 3672.02 1878.13L3672.13 1878.24L3672.25 1878.36C3706.35 1912.42 3748.69 1929.5 3797.76 1929.5C3845.65 1929.5 3889.42 1911.25 3928.52 1876.85L3942.92 1864.18L3933.4 1847.53L3892.87 1776.71L3877.61 1750.03L3855.87 1771.75C3836.86 1790.74 3822.24 1796.5 3811.69 1796.5C3796.01 1796.5 3785.64 1792.09 3778.2 1784.95C3771.35 1776.8 3766.81 1764.84 3766.81 1746.64ZM1400.67 1637.14L1477.25 1464.4L1553.83 1637.14H1400.67Z" stroke="url(#paint1_linear_261_124)" stroke-width="47" shape-rendering="crispEdges"/>
</g>
<g id="Me" filter="url(#filter1_dd_261_124)">
<path d="M1125.36 4055.82H1149.86V4031.32V2881.54L1661.31 3901.22L1668.09 3914.74H1683.21H1834.16H1849.24L1856.03 3901.28L2370.79 2881V4031.32V4055.82H2395.29H2664.37H2688.87V4031.32V2427V2402.5H2664.37H2244.34H2228.95L2222.27 2416.36L1758.76 3377.64L1298.41 2416.42L1291.74 2402.5H1276.31H853H828.5V2427V4031.32V4055.82H853H1125.36ZM4209 3557.13H4233.5V3532.63V3355.47C4233.5 3178.81 4174.3 3035.19 4054.79 2927.19C3936.01 2819.85 3787.74 2766.67 3611.77 2766.67C3434.95 2766.67 3283.33 2826.98 3158.34 2947.41C3032.66 3068.49 2970.36 3226.06 2970.36 3417.8C2970.36 3613.6 3031.36 3773.38 3154.9 3894.6C3277.89 4015.3 3430.75 4075.5 3611.77 4075.5C3829.83 4075.5 4008.26 4004.44 4144.7 3861.21L4160.51 3844.61L4145.01 3827.74L3997.34 3666.98L3977.96 3645.88L3960.13 3668.3C3889.4 3757.19 3781.47 3803.41 3631.46 3803.41C3537.87 3803.41 3456.63 3777.52 3386.74 3726.15C3325.51 3681.14 3289.85 3625.09 3278.42 3557.13H4209ZM3841.21 3114.24L3841.37 3114.39L3841.53 3114.53C3893.79 3161.37 3922.99 3224.01 3927.83 3304.72H3276.22C3281.92 3229.3 3314.49 3167.76 3374.48 3118.64C3444.32 3063.23 3525.27 3035.48 3618.34 3035.48C3711.77 3035.48 3785.28 3062.31 3841.21 3114.24Z" stroke="#0B7BB8" stroke-width="49" shape-rendering="crispEdges"/>
</g>
<g id="Line 10" filter="url(#filter2_d_261_124)">
<line x1="3076" y1="300.5" x2="4170" y2="300.5" stroke="#0B7BB8" stroke-width="109"/>
</g>
<g id="Line 11" filter="url(#filter3_d_261_124)">
<line x1="464" y1="300.5" x2="2679" y2="300.5" stroke="#0B7BB8" stroke-width="109"/>
</g>
<g id="Line 12" filter="url(#filter4_d_261_124)">
<line x1="284" y1="4475.5" x2="1734" y2="4475.5" stroke="#0B7BB8" stroke-width="109"/>
</g>
<g id="Line 13" filter="url(#filter5_d_261_124)">
<line x1="3188" y1="4475.5" x2="4638" y2="4475.5" stroke="#0B7BB8" stroke-width="109"/>
</g>
</g>
<defs>
<filter id="filter0_d_261_124" x="1012.82" y="1113" width="3079.02" height="940" filterUnits="userSpaceOnUse" color-interpolation-filters="sRGB">
<feFlood flood-opacity="0" result="BackgroundImageFix"/>
<feColorMatrix in="SourceAlpha" type="matrix" values="0 0 0 0 0 0 0 0 0 0 0 0 0 0 0 0 0 0 127 0" result="hardAlpha"/>
<feOffset dx="28" dy="9"/>
<feGaussianBlur stdDeviation="45.5"/>
<feComposite in2="hardAlpha" operator="out"/>
<feColorMatrix type="matrix" values="0 0 0 0 0.0431373 0 0 0 0 0.482353 0 0 0 0 0.721569 0 0 0 1 0"/>
<feBlend mode="normal" in2="BackgroundImageFix" result="effect1_dropShadow_261_124"/>
<feBlend mode="normal" in="SourceGraphic" in2="effect1_dropShadow_261_124" result="shape"/>
</filter>
<filter id="filter1_dd_261_124" x="586" y="2159" width="3866" height="2134" filterUnits="userSpaceOnUse" color-interpolation-filters="sRGB">
<feFlood flood-opacity="0" result="BackgroundImageFix"/>
<feColorMatrix in="SourceAlpha" type="matrix" values="0 0 0 0 0 0 0 0 0 0 0 0 0 0 0 0 0 0 127 0" result="hardAlpha"/>
<feOffset dx="-12" dy="-13"/>
<feGaussianBlur stdDeviation="103"/>
<feComposite in2="hardAlpha" operator="out"/>
<feColorMatrix type="matrix" values="0 0 0 0 0.0958333 0 0 0 0 0.68119 0 0 0 0 1 0 0 0 1 0"/>
<feBlend mode="normal" in2="BackgroundImageFix" result="effect1_dropShadow_261_124"/>
<feColorMatrix in="SourceAlpha" type="matrix" values="0 0 0 0 0 0 0 0 0 0 0 0 0 0 0 0 0 0 127 0" result="hardAlpha"/>
<feOffset dy="4"/>
<feGaussianBlur stdDeviation="2"/>
<feComposite in2="hardAlpha" operator="out"/>
<feColorMatrix type="matrix" values="0 0 0 0 0 0 0 0 0 0 0 0 0 0 0 0 0 0 0.25 0"/>
<feBlend mode="normal" in2="effect1_dropShadow_261_124" result="effect2_dropShadow_261_124"/>
<feBlend mode="normal" in="SourceGraphic" in2="effect2_dropShadow_261_124" result="shape"/>
</filter>
<filter id="filter2_d_261_124" x="2826" y="0" width="1594" height="609" filterUnits="userSpaceOnUse" color-interpolation-filters="sRGB">
<feFlood flood-opacity="0" result="BackgroundImageFix"/>
<feColorMatrix in="SourceAlpha" type="matrix" values="0 0 0 0 0 0 0 0 0 0 0 0 0 0 0 0 0 0 127 0" result="hardAlpha"/>
<feOffset dy="4"/>
<feGaussianBlur stdDeviation="125"/>
<feComposite in2="hardAlpha" operator="out"/>
<feColorMatrix type="matrix" values="0 0 0 0 0.0431373 0 0 0 0 0.482353 0 0 0 0 0.721569 0 0 0 1 0"/>
<feBlend mode="normal" in2="BackgroundImageFix" result="effect1_dropShadow_261_124"/>
<feBlend mode="normal" in="SourceGraphic" in2="effect1_dropShadow_261_124" result="shape"/>
</filter>
<filter id="filter3_d_261_124" x="214" y="0" width="2715" height="609" filterUnits="userSpaceOnUse" color-interpolation-filters="sRGB">
<feFlood flood-opacity="0" result="BackgroundImageFix"/>
<feColorMatrix in="SourceAlpha" type="matrix" values="0 0 0 0 0 0 0 0 0 0 0 0 0 0 0 0 0 0 127 0" result="hardAlpha"/>
<feOffset dy="4"/>
<feGaussianBlur stdDeviation="125"/>
<feComposite in2="hardAlpha" operator="out"/>
<feColorMatrix type="matrix" values="0 0 0 0 0.0431373 0 0 0 0 0.482353 0 0 0 0 0.721569 0 0 0 1 0"/>
<feBlend mode="normal" in2="BackgroundImageFix" result="effect1_dropShadow_261_124"/>
<feBlend mode="normal" in="SourceGraphic" in2="effect1_dropShadow_261_124" result="shape"/>
</filter>
<filter id="filter4_d_261_124" x="34" y="4175" width="1950" height="609" filterUnits="userSpaceOnUse" color-interpolation-filters="sRGB">
<feFlood flood-opacity="0" result="BackgroundImageFix"/>
<feColorMatrix in="SourceAlpha" type="matrix" values="0 0 0 0 0 0 0 0 0 0 0 0 0 0 0 0 0 0 127 0" result="hardAlpha"/>
<feOffset dy="4"/>
<feGaussianBlur stdDeviation="125"/>
<feComposite in2="hardAlpha" operator="out"/>
<feColorMatrix type="matrix" values="0 0 0 0 0.0431373 0 0 0 0 0.482353 0 0 0 0 0.721569 0 0 0 1 0"/>
<feBlend mode="normal" in2="BackgroundImageFix" result="effect1_dropShadow_261_124"/>
<feBlend mode="normal" in="SourceGraphic" in2="effect1_dropShadow_261_124" result="shape"/>
</filter>
<filter id="filter5_d_261_124" x="2938" y="4175" width="1950" height="609" filterUnits="userSpaceOnUse" color-interpolation-filters="sRGB">
<feFlood flood-opacity="0" result="BackgroundImageFix"/>
<feColorMatrix in="SourceAlpha" type="matrix" values="0 0 0 0 0 0 0 0 0 0 0 0 0 0 0 0 0 0 127 0" result="hardAlpha"/>
<feOffset dy="4"/>
<feGaussianBlur stdDeviation="125"/>
<feComposite in2="hardAlpha" operator="out"/>
<feColorMatrix type="matrix" values="0 0 0 0 0.0431373 0 0 0 0 0.482353 0 0 0 0 0.721569 0 0 0 1 0"/>
<feBlend mode="normal" in2="BackgroundImageFix" result="effect1_dropShadow_261_124"/>
<feBlend mode="normal" in="SourceGraphic" in2="effect1_dropShadow_261_124" result="shape"/>
</filter>
<linearGradient id="paint0_linear_261_124" x1="2401" y1="525" x2="2401" y2="5216" gradientUnits="userSpaceOnUse">
<stop stop-color="#0B7BB8"/>
<stop offset="1" stop-color="#EB00FF"/>
</linearGradient>
<linearGradient id="paint1_linear_261_124" x1="627.349" y1="560.938" x2="4053.97" y2="2173.56" gradientUnits="userSpaceOnUse">
<stop stop-color="#0B7BB8"/>
<stop offset="1" stop-color="#EB00FF"/>
</linearGradient>
</defs>
</svg>
