<svg width="1293" height="1293" viewBox="0 0 1293 1293" fill="none" xmlns="http://www.w3.org/2000/svg">
<path d="M1158.66 1044.47L1158.65 1044.48C1078.27 1157.31 974.647 1235.21 847.62 1278.62C834.924 1280.9 829.593 1278.35 827.324 1276.11L827.28 1276.06L827.236 1276.02C825.125 1273.97 823.463 1271.5 822.352 1268.77C821.241 1266.05 820.706 1263.12 820.78 1260.18L820.785 1260.01V1259.84V1077.72C820.785 1031.81 811.246 993.84 790.814 965.442C811.834 962.366 832.674 958.131 853.239 952.754L853.301 952.738L853.362 952.721C880.09 945.463 907.505 933.802 935.531 917.83C963.172 902.356 987.622 881.772 1007.58 857.172L1007.61 857.14L1007.63 857.107C1027.24 832.639 1042.77 800.762 1054.62 761.971C1066.6 722.74 1072.47 678.118 1072.47 628.213C1072.47 558.335 1051 497.867 1007.98 447.57C1026.97 393.409 1023.3 333.816 998.302 269.497L995.993 263.557L989.94 261.564C969.54 254.849 943.036 259.636 912.781 271.272C885.011 281.707 858.311 294.791 833.049 310.344L832.922 310.422L832.798 310.503L805.903 327.889C753.976 313.661 700.354 306.518 646.495 306.659C592.711 306.539 539.167 313.684 487.313 327.892C477.109 320.951 466.737 314.261 456.206 307.826C440.306 297.947 415.964 286.55 383.842 273.572C351.484 260.473 323.407 254.882 302.292 261.585L296.068 263.561L293.753 269.666C269.405 333.892 265.956 393.449 285.073 447.579C242 497.869 220.468 558.333 220.468 628.213C220.468 678.13 226.408 722.63 238.391 761.608L238.393 761.614C250.23 800.053 265.61 831.847 284.796 856.505L284.825 856.541L284.854 856.578C304.51 881.482 328.876 902.273 356.563 917.764C384.571 933.727 412.057 945.46 438.811 952.66C458.141 957.943 479.151 962.193 501.816 965.457C488.317 984.583 479.524 1007.89 475.11 1034.87C466.004 1038.77 456.531 1041.76 446.827 1043.8C431.974 1046.71 416.86 1048.07 401.726 1047.86L401.634 1047.86H401.541C386.197 1047.86 370.495 1042.78 353.979 1031.64C337.854 1020.66 323.606 1004.45 311.484 982.39L311.44 982.308L311.394 982.228C300.304 962.688 285.005 945.862 266.606 932.969L266.586 932.954L266.565 932.94C249.492 921.069 233.778 912.909 219.822 910.102L219.518 910.041L219.212 909.994L202.403 907.408L201.383 907.251H200.35C188.5 907.251 177.112 908.396 169.215 912.908C165.499 915.032 161.309 918.422 159.056 923.804C156.667 929.508 157.417 935.101 159.162 939.5L159.24 939.697L159.324 939.891C161.75 945.486 164.999 950.688 168.962 955.323C172.878 960.017 177.348 964.218 182.275 967.836L182.282 967.841L188.1 972.108L189.162 972.886L190.354 973.445C200.032 977.981 210.589 987.049 221.945 1002.17C233.621 1017.72 241.812 1031.42 246.807 1043.27L246.811 1043.28L246.815 1043.29L255.02 1062.66C263.147 1086.67 276.945 1106.48 296.473 1121.61C315.459 1136.42 336.258 1145.99 358.709 1150.09C379.522 1153.96 399.8 1156.11 419.458 1156.38C438.628 1156.65 455.242 1155.68 468.811 1153.13C468.836 1153.12 468.861 1153.12 468.886 1153.11L472.238 1152.52C472.287 1170.61 472.421 1190.89 472.669 1213.36C472.669 1213.36 472.669 1213.37 472.669 1213.37L473.056 1259.77C473.056 1259.79 473.056 1259.8 473.056 1259.82C473.045 1266.6 470.836 1271.59 466.373 1275.74L466.283 1275.83L466.195 1275.91C463.612 1278.4 458 1280.88 445.38 1278.62C318.356 1235.21 214.733 1157.24 134.345 1044.48L134.344 1044.47C53.7746 931.476 13.5 804.346 13.5 662.671C13.5 544.695 41.8233 436.198 98.4288 336.727L98.4475 336.695L98.4659 336.662C153.261 239.11 232.733 157.674 328.918 100.514L328.951 100.495L328.984 100.475C424.766 42.8169 534.609 12.7248 646.405 13.5156L646.501 13.5163L646.597 13.5156C758.414 12.7132 868.28 42.8057 964.081 100.475L964.112 100.494L964.144 100.513C1060.31 157.682 1139.76 239.117 1194.53 336.661L1194.55 336.696L1194.57 336.731C1251.18 436.132 1279.5 544.757 1279.5 662.671C1279.5 804.346 1239.23 931.476 1158.66 1044.47Z" stroke="url(#paint0_linear_281_3)" stroke-width="27"/>
<defs>
<linearGradient id="paint0_linear_281_3" x1="267.5" y1="-221.5" x2="949" y2="1747.5" gradientUnits="userSpaceOnUse">
<stop stop-color="#0B7BB8"/>
<stop offset="0.807839" stop-color="#EB00FF"/>
</linearGradient>
</defs>
</svg>
