<svg  viewBox="0 0 5114 4613" fill="transparent"  xmlns="http://www.w3.org/2000/svg">
<g id="Group 1919">
<g id="Group" filter="url(#filter0_d_261_128)">
<path id="Vector" d="M304 2553L2557 300L4810 2553" stroke="url(#paint0_linear_261_128)" stroke-width="107" stroke-linecap="round" stroke-linejoin="round"/>
<path id="Vector_2" d="M804.667 2052.33V3804.67C804.667 3937.45 857.416 4064.8 951.309 4158.69C1045.2 4252.58 1172.55 4305.33 1305.33 4305.33H3808.67C3941.45 4305.33 4068.8 4252.58 4162.69 4158.69C4256.58 4064.8 4309.33 3937.45 4309.33 3804.67V2052.33" stroke="url(#paint1_linear_261_128)" stroke-width="107" stroke-linecap="round" stroke-linejoin="round"/>
</g>
<g id="Home" filter="url(#filter1_dd_261_128)">
<path d="M2034.55 3382V3398.5H2051.05H2093.84H2110.34V3382V3295.41H2202.08V3382V3398.5H2218.58H2261.36H2277.86V3382V3129.94V3113.44H2261.36H2218.58H2202.08V3129.94V3222.72H2110.34V3129.94V3113.44H2093.84H2051.05H2034.55V3129.94V3382ZM2445.43 3319.82L2445.34 3319.9L2445.26 3319.99C2437.28 3328.21 2427.24 3332.51 2413.8 3332.51C2400.51 3332.51 2390.52 3328.15 2382.51 3319.65L2382.34 3319.47L2382.17 3319.3C2374.41 3311.55 2369.99 3301.05 2369.99 3286.12C2369.99 3271.21 2374.41 3260.42 2382.34 3252.26C2390.32 3244.03 2400.36 3239.74 2413.8 3239.74C2427.24 3239.74 2437.28 3244.03 2445.26 3252.26L2445.34 3252.34L2445.43 3252.43C2453.63 3260.63 2458.12 3271.36 2458.12 3286.12C2458.12 3300.89 2453.63 3311.62 2445.43 3319.82ZM2329.97 3368.41L2330.02 3368.46L2330.07 3368.51C2352.63 3390.67 2380.94 3401.59 2413.8 3401.59C2446.75 3401.59 2475.09 3390.44 2497.63 3367.89L2497.73 3367.79L2497.83 3367.69C2519.94 3344.8 2531.33 3317.36 2531.33 3286.12C2531.33 3254.05 2520.06 3226.41 2497.58 3204.3C2475.05 3181.8 2446.72 3170.65 2413.8 3170.65C2380.88 3170.65 2352.55 3181.8 2330.02 3204.3C2307.54 3226.41 2296.27 3254.05 2296.27 3286.12C2296.27 3318.22 2307.55 3345.99 2329.97 3368.41ZM2600.72 3398.5H2617.22V3382V3277.88C2617.22 3264 2621.14 3255.64 2626.92 3250.26L2627.03 3250.16L2627.13 3250.06C2633.8 3243.62 2641.97 3240.25 2652.79 3240.25C2662.93 3240.25 2667.49 3243.23 2670.06 3246.62C2673.36 3250.96 2676.49 3259.99 2676.49 3276.85V3382V3398.5H2692.99H2733.71H2750.21V3382V3275.48C2750.52 3262.8 2754.29 3254.96 2759.89 3249.76L2759.9 3249.75L2759.91 3249.75C2766.62 3243.49 2774.73 3240.25 2785.26 3240.25C2796.63 3240.25 2802.43 3243.52 2805.84 3247.6C2809.73 3252.26 2813.09 3261.04 2813.09 3276.85V3382V3398.5H2829.59H2869.8H2886.3V3382V3264.47C2886.3 3236.86 2878.96 3213.12 2862.03 3195.74C2845.32 3178.6 2823.23 3170.65 2797.63 3170.65C2771.1 3170.65 2748.11 3179.91 2729.03 3197.42C2724.1 3191.55 2718.3 3186.53 2711.62 3182.47C2698.12 3174.25 2682.16 3170.65 2664.64 3170.65C2648.32 3170.65 2632.95 3174.86 2618.8 3183.15C2618.27 3183.45 2617.75 3183.75 2617.22 3184.06V3173.75H2600.72H2560.52H2544.02V3190.25V3382V3398.5H2560.52H2600.72ZM3105.08 3320.15H3121.58V3303.65V3275.81C3121.58 3244.93 3111.08 3218.79 3089.34 3199.14C3068.09 3179.93 3041.66 3170.65 3011.27 3170.65C2980.29 3170.65 2953.31 3181.35 2931.26 3202.59C2908.75 3224.28 2897.86 3252.47 2897.86 3285.61C2897.86 3319.21 2908.44 3347.76 2930.64 3369.55C2952.47 3390.98 2979.73 3401.59 3011.27 3401.59C3048.54 3401.59 3080.03 3389.31 3104.14 3364L3114.78 3352.82L3104.35 3341.46L3084.78 3320.15H3105.08ZM2983.41 3323.86C2981.78 3322.67 2980.34 3321.43 2979.05 3320.15H3053.39C3045.22 3328.51 3033 3333.54 3014.36 3333.54C3002.16 3333.54 2992.07 3330.23 2983.41 3323.86ZM3038.7 3247.18L3038.8 3247.28L3038.91 3247.38C3041.36 3249.57 3043.4 3252.13 3044.95 3255.19H2975.69C2977.32 3252.77 2979.4 3250.54 2981.93 3248.45C2990.56 3241.63 3000.46 3238.19 3012.3 3238.19C3024.38 3238.19 3032.66 3241.58 3038.7 3247.18Z" stroke="url(#paint2_linear_261_128)" stroke-width="33" shape-rendering="crispEdges"/>
</g>
</g>
<defs>
<filter id="filter0_d_261_128" x="0.5" y="0.5" width="5113" height="4612.33" filterUnits="userSpaceOnUse" color-interpolation-filters="sRGB">
<feFlood flood-opacity="0" result="BackgroundImageFix"/>
<feColorMatrix in="SourceAlpha" type="matrix" values="0 0 0 0 0 0 0 0 0 0 0 0 0 0 0 0 0 0 127 0" result="hardAlpha"/>
<feOffset dy="4"/>
<feGaussianBlur stdDeviation="125"/>
<feComposite in2="hardAlpha" operator="out"/>
<feColorMatrix type="matrix" values="0 0 0 0 0 0 0 0 0 0.647399 0 0 0 0 1 0 0 0 1 0"/>
<feBlend mode="normal" in2="BackgroundImageFix" result="effect1_dropShadow_261_128"/>
<feBlend mode="normal" in="SourceGraphic" in2="effect1_dropShadow_261_128" result="shape"/>
</filter>
<filter id="filter1_dd_261_128" x="1955.05" y="3001.94" width="1412.03" height="595.154" filterUnits="userSpaceOnUse" color-interpolation-filters="sRGB">
<feFlood flood-opacity="0" result="BackgroundImageFix"/>
<feColorMatrix in="SourceAlpha" type="matrix" values="0 0 0 0 0 0 0 0 0 0 0 0 0 0 0 0 0 0 127 0" result="hardAlpha"/>
<feOffset dx="92" dy="42"/>
<feGaussianBlur stdDeviation="68.5"/>
<feComposite in2="hardAlpha" operator="out"/>
<feColorMatrix type="matrix" values="0 0 0 0 0.92 0 0 0 0 0 0 0 0 0 1 0 0 0 1 0"/>
<feBlend mode="normal" in2="BackgroundImageFix" result="effect1_dropShadow_261_128"/>
<feColorMatrix in="SourceAlpha" type="matrix" values="0 0 0 0 0 0 0 0 0 0 0 0 0 0 0 0 0 0 127 0" result="hardAlpha"/>
<feOffset dx="28" dy="9"/>
<feGaussianBlur stdDeviation="45.5"/>
<feComposite in2="hardAlpha" operator="out"/>
<feColorMatrix type="matrix" values="0 0 0 0 0.0431373 0 0 0 0 0.482353 0 0 0 0 0.721569 0 0 0 1 0"/>
<feBlend mode="normal" in2="effect1_dropShadow_261_128" result="effect2_dropShadow_261_128"/>
<feBlend mode="normal" in="SourceGraphic" in2="effect2_dropShadow_261_128" result="shape"/>
</filter>
<linearGradient id="paint0_linear_261_128" x1="2557" y1="300" x2="2557" y2="2553" gradientUnits="userSpaceOnUse">
<stop stop-color="#0B7BB8"/>
<stop offset="1" stop-color="#EB00FF"/>
</linearGradient>
<linearGradient id="paint1_linear_261_128" x1="2557" y1="2052.33" x2="2557" y2="4305.33" gradientUnits="userSpaceOnUse">
<stop stop-color="#0B7BB8"/>
<stop offset="1" stop-color="#EB00FF"/>
</linearGradient>
<linearGradient id="paint2_linear_261_128" x1="1108" y1="2775.5" x2="3790" y2="4047" gradientUnits="userSpaceOnUse">
<stop stop-color="#0B7BB8"/>
<stop offset="0.837521" stop-color="#EB00FF"/>
</linearGradient>
</defs>
</svg>
