<svg viewBox="0 0 409 409" fill="none" xmlns="http://www.w3.org/2000/svg">
<g clip-path="url(#clip0_204_84)" filter="url(#filter0_d_204_84)">
<path d="M246.131 152.556C238.101 152.556 232.155 154.582 227.501 157.14C226.754 154.487 224.303 152.545 221.413 153.125H186.071C182.577 152.545 179.747 155.375 180.824 159.047V289.328C179.747 292.644 182.577 295.487 186.071 295.25H221.413C224.907 295.487 227.737 292.644 227.737 289.15L227.726 210.413C227.714 210.378 227.583 206.611 229.964 204.017C231.871 201.957 235.152 200.903 239.688 200.903C247.244 200.903 250.608 203.994 251.863 210.911V289.15C250.62 292.644 253.45 295.487 256.944 295.25H294.193C297.687 295.487 300.517 292.644 299.262 289.15V208.281C300.505 167.16 271.216 152.556 246.131 152.556ZM287.856 283.406H263.269V210.911C263.269 196.923 254.232 188.253 239.7 188.253C231.48 188.253 225.084 190.67 220.679 195.431C214.555 202.063 215.029 210.472 216.344 212.344V283.406H192.396V165.205H215.088V169.185C215.079 170.37 215.404 171.534 216.027 172.543C216.65 173.552 217.544 174.365 218.608 174.888C219.672 175.411 220.862 175.624 222.041 175.501C223.22 175.379 224.341 174.926 225.274 174.195L226.932 172.916C231.729 169.138 236.691 165.217 246.143 165.217C255.926 165.217 287.868 168.332 287.868 208.293L287.856 283.406ZM145.281 93.5034C131.993 93.5034 121.191 104.305 121.191 117.594C121.191 130.882 131.993 141.684 145.281 141.684C158.57 141.684 169.371 130.882 169.371 117.594C169.371 104.305 158.57 93.5034 145.281 93.5034ZM145.281 129.035C138.98 129.035 133.84 123.894 133.84 117.594C133.84 111.293 138.98 106.153 145.281 106.153C151.582 106.153 156.722 111.293 156.722 117.594C156.722 123.894 151.582 129.035 145.281 129.035ZM162.194 152.545H127.042C123.548 152.545 120.717 155.375 121.594 159.047V289.328C120.717 292.644 123.548 295.487 127.042 295.25H162.194C165.688 295.487 168.519 292.644 168.519 289.15V158.869C168.519 157.192 167.852 155.583 166.666 154.397C165.48 153.211 163.871 152.545 162.194 152.545ZM157.125 283.406H133.366V165.205H157.125V283.406Z" fill="url(#paint0_linear_204_84)"/>
<path d="M204.5 10.5972C99.7775 10.5972 14.5973 95.7774 14.5973 200.5C14.5973 305.222 99.7775 390.403 204.5 390.403C309.222 390.403 394.403 305.222 394.403 200.5C394.403 95.7774 309.222 10.5972 204.5 10.5972ZM204.5 377.753C106.765 377.753 27.2464 298.234 27.2464 200.5C27.2464 102.765 106.765 23.2463 204.5 23.2463C302.235 23.2463 381.754 102.765 381.754 200.5C381.754 298.234 302.235 377.753 204.5 377.753Z" fill="url(#paint1_linear_204_84)"/>
</g>
<defs>
<filter id="filter0_d_204_84" x="0" y="0" width="409" height="409" filterUnits="userSpaceOnUse" color-interpolation-filters="sRGB">
<feFlood flood-opacity="0" result="BackgroundImageFix"/>
<feColorMatrix in="SourceAlpha" type="matrix" values="0 0 0 0 0 0 0 0 0 0 0 0 0 0 0 0 0 0 127 0" result="hardAlpha"/>
<feOffset dy="4"/>
<feGaussianBlur stdDeviation="7.5"/>
<feComposite in2="hardAlpha" operator="out"/>
<feColorMatrix type="matrix" values="0 0 0 0 0.92 0 0 0 0 0 0 0 0 0 1 0 0 0 1 0"/>
<feBlend mode="normal" in2="BackgroundImageFix" result="effect1_dropShadow_204_84"/>
<feBlend mode="normal" in="SourceGraphic" in2="effect1_dropShadow_204_84" result="shape"/>
</filter>
<linearGradient id="paint0_linear_204_84" x1="210.378" y1="93.5034" x2="210.378" y2="295.264" gradientUnits="userSpaceOnUse">
<stop stop-color="#0B7BB8"/>
<stop offset="1" stop-color="#EB00FF"/>
</linearGradient>
<linearGradient id="paint1_linear_204_84" x1="204.5" y1="10.5972" x2="204.5" y2="390.403" gradientUnits="userSpaceOnUse">
<stop stop-color="#0B7BB8"/>
<stop offset="1" stop-color="#EB00FF"/>
</linearGradient>
<clipPath id="clip0_204_84">
<rect width="379" height="379" fill="white" transform="translate(15 11)"/>
</clipPath>
</defs>
</svg>
