<svg  viewBox="0 0 5612 4697" fill="transparent" xmlns="http://www.w3.org/2000/svg">
<g id="Group 1917" filter="url(#filter0_d_261_103)">
<g id="Group" filter="url(#filter1_dd_261_103)">
<path id="Vector" fill-rule="evenodd" clip-rule="evenodd" d="M1093.46 3191.6C1127.29 3215.78 1165.89 3233.3 1207.05 3243.13C1248.21 3252.96 1291.11 3254.91 1333.3 3248.88C1419.64 3236.65 1495.97 3192.54 1547.79 3127.22C1573.64 3094.64 1592.55 3057.6 1603.43 3018.23C1614.32 2978.85 1616.97 2937.93 1611.22 2897.8C1599.58 2815.66 1554.37 2743.52 1486.55 2695.03C1452.72 2670.84 1414.12 2653.33 1372.96 2643.5C1331.8 2633.67 1288.89 2631.71 1246.71 2637.74C1160.36 2649.98 1084.04 2694.08 1032.22 2759.4C1006.37 2791.98 987.459 2829.03 976.573 2868.4C965.687 2907.77 963.04 2948.7 968.784 2988.82C980.422 3070.96 1025.64 3143.1 1093.46 3191.6ZM1444.7 3053.68C1413.58 3093 1367.89 3119.3 1315.98 3126.65C1264.07 3134.01 1212.99 3121.3 1172.16 3092.17C1131.34 3063.04 1104.29 3020.12 1097.27 2970.62C1090.26 2921.12 1104.32 2872.37 1135.45 2833.05C1166.58 2793.73 1212.12 2767.32 1264.03 2759.97C1315.93 2752.62 1367.02 2765.33 1407.84 2794.45C1448.67 2823.58 1475.74 2866.62 1482.73 2916C1489.73 2965.38 1475.69 3014.25 1444.56 3053.58L1444.7 3053.68Z" fill="url(#paint0_linear_261_103)"/>
<path id="Vector_2" fill-rule="evenodd" clip-rule="evenodd" d="M1723.86 2105.45L1573.04 2215.84C1521.88 2198.26 1468.9 2185.71 1414.92 2178.4L1330.04 2014.12C1324.07 2002.54 1314.41 1993.08 1302.41 1987.11C1290.41 1981.13 1276.69 1978.93 1263.19 1980.83L1035 2013.16C1021 2015.16 1008 2021.45 997.982 2031.08C987.966 2040.72 981.483 2053.17 979.519 2066.53L953.45 2245.15C903.722 2267.42 856.431 2294.42 812.307 2325.74L629.447 2268.24C616.554 2264.2 602.596 2264.15 589.556 2268.1C576.516 2272.05 565.057 2279.8 556.809 2290.25L417.052 2466.66C408.471 2477.5 403.811 2490.67 403.781 2504.16C403.752 2517.65 408.356 2530.71 416.889 2541.36L530.624 2683.59C511.463 2732.44 497.53 2783.04 489.143 2834.85L315.601 2918.04C303.361 2923.88 293.309 2933.23 286.872 2944.75C280.435 2956.27 277.939 2969.38 279.739 2982.22L310.513 3199.42C312.413 3212.74 318.837 3225.04 328.807 3234.46C338.777 3243.87 351.746 3249.88 365.741 3251.56L552.798 3273.94C575.488 3321.22 603.168 3365.8 635.402 3407.36L572.529 3582.47C568.107 3594.81 567.861 3608.12 571.826 3620.5C575.791 3632.87 583.766 3643.69 594.616 3651.41L777.749 3782.06C789.005 3790.09 802.76 3794.35 816.913 3794.19C831.067 3794.03 844.841 3789.46 856.133 3781.17L1006.95 3670.78C1057.93 3688.37 1110.83 3700.95 1165.08 3708.23L1249.95 3872.5C1255.92 3884.09 1265.58 3893.54 1277.58 3899.51C1289.58 3905.49 1303.3 3907.69 1316.8 3905.79L1545.12 3873.44C1559.12 3871.45 1572.12 3865.15 1582.14 3855.52C1592.15 3845.88 1598.64 3833.44 1600.6 3820.07L1626.67 3641.45C1676.4 3619.19 1723.69 3592.18 1767.81 3560.86L1950.67 3618.36C1963.55 3622.42 1977.51 3622.49 1990.55 3618.56C2003.59 3614.63 2015.06 3606.9 2023.33 3596.47L2162.94 3419.96C2171.52 3409.12 2176.18 3395.95 2176.21 3382.46C2176.24 3368.97 2171.64 3355.91 2163.1 3345.26L2049.37 3203.03C2068.53 3154.18 2082.46 3103.58 2090.85 3051.77L2264.39 2968.58C2276.63 2962.74 2286.68 2953.39 2293.12 2941.87C2299.56 2930.35 2302.05 2917.24 2300.25 2904.4L2269.5 2687.33C2267.6 2674 2261.17 2661.7 2251.2 2652.29C2241.23 2642.87 2228.26 2636.87 2214.27 2635.18L2027.21 2612.81C2004.54 2565.71 1976.86 2521.01 1944.61 2479.38L2007.48 2304.27C2011.92 2291.94 2012.19 2278.64 2008.25 2266.26C2004.3 2253.88 1996.35 2243.05 1985.52 2235.32L1802.26 2104.69C1791 2096.66 1777.25 2092.4 1763.1 2092.56C1748.94 2092.72 1735.15 2097.16 1723.86 2105.45ZM1622.14 2334.81L1762.72 2231.73L1869.6 2307.98L1810.68 2472.18C1807.14 2482.08 1806.27 2492.65 1808.16 2502.89C1810.04 2513.13 1814.62 2522.71 1821.47 2530.74C1863.14 2579.7 1896.99 2634.5 1921.84 2693.32C1926.07 2703.39 1933.04 2712.17 1942.03 2718.78C1951.02 2725.39 1961.72 2729.59 1973.04 2730.95L2147.57 2751.86L2165.53 2878.61L2002.65 2956.54C1992.81 2961.25 1984.36 2968.23 1978.06 2976.84C1971.76 2985.45 1967.83 2995.4 1966.63 3005.78C1959.37 3069.1 1942.33 3131.18 1916.06 3190C1911.55 3200.07 1909.89 3211.06 1911.26 3221.85C1912.63 3232.65 1916.97 3242.87 1923.86 3251.48L2030.06 3384.06L1948.57 3486.99L1777.11 3433.11C1766.76 3429.87 1755.69 3429.19 1744.92 3431.13C1734.15 3433.07 1724.03 3437.57 1715.5 3444.21C1663.56 3484.61 1605.59 3517.64 1543.53 3542.14C1532.91 3546.32 1523.6 3553.08 1516.54 3561.74C1509.48 3570.41 1504.92 3580.66 1503.33 3591.47L1478.98 3758.13L1345.86 3776.99L1266.35 3622.81C1261.54 3613.49 1254.31 3605.51 1245.34 3599.63C1236.37 3593.75 1225.95 3590.16 1215.05 3589.18C1148.72 3583.13 1083.82 3567.75 1022.47 3543.53C1011.97 3539.37 1000.46 3537.94 989.109 3539.39C977.76 3540.85 966.975 3545.13 957.847 3551.81L817.269 3654.89L710.394 3578.64L769.308 3414.45C772.851 3404.54 773.72 3393.98 771.833 3383.73C769.947 3373.49 765.367 3363.91 758.519 3355.88C716.761 3306.81 682.94 3252.03 658.154 3193.3C653.921 3183.23 646.955 3174.45 637.962 3167.84C628.97 3161.24 618.27 3157.04 606.949 3155.67L432.42 3134.77L414.478 3008.14L577.361 2930.2C587.181 2925.47 595.62 2918.47 601.892 2909.84C608.163 2901.21 612.063 2891.24 613.229 2880.86C620.63 2817.47 637.775 2755.31 663.93 2696.62C668.444 2686.56 670.101 2675.56 668.732 2664.77C667.363 2653.97 663.018 2643.75 656.136 2635.14L549.93 2502.56L631.417 2399.63L802.885 2453.51C813.23 2456.75 824.303 2457.43 835.073 2455.49C845.844 2453.55 855.962 2449.05 864.487 2442.41C916.432 2402.01 974.403 2368.98 1036.46 2344.48C1047.08 2340.31 1056.4 2333.54 1063.46 2324.88C1070.51 2316.22 1075.07 2305.96 1076.66 2295.15L1101.02 2128.49L1234.26 2109.61L1313.77 2263.79C1318.58 2273.08 1325.8 2281.02 1334.74 2286.88C1343.68 2292.74 1354.06 2296.33 1364.92 2297.32C1431.33 2303.49 1496.3 2318.97 1557.52 2343.09C1568.02 2347.26 1579.53 2348.68 1590.88 2347.23C1602.23 2345.77 1613.02 2341.49 1622.14 2334.81Z" fill="url(#paint1_linear_261_103)"/>
</g>
<g id="Vector_3" filter="url(#filter2_dd_261_103)">
<path fill-rule="evenodd" clip-rule="evenodd" d="M2245.35 4195C2383.16 4283.9 2542.46 4344.03 2736.86 4339.33C2930.91 4344.03 3090.56 4283.9 3228.37 4195L3225.4 3816.41H2248.32L2245.35 4195ZM3207.93 3642.11C3207.93 2882.66 4016.64 2622.78 3956.03 1866.29C3917.95 1389.05 3593.94 853.585 2736.86 853.585C1879.77 853.585 1555.77 1389.05 1517.52 1866.47C1456.91 2622.78 2265.78 2882.66 2265.78 3642.11H3207.93ZM1863.53 1899.06C1899.68 1446.22 2232.6 1201.85 2736.86 1201.85C3240.94 1201.85 3549.75 1440.82 3585.91 1893.66C3605.65 2141.87 3462.77 2307.29 3269.94 2577.98C3127.76 2777.73 2989.95 2986.38 2911.52 3293.5H2562.19C2483.77 2986.38 2345.96 2777.73 2203.6 2577.81C2010.95 2307.29 1843.62 2147.27 1863.53 1899.06Z" fill="url(#paint2_linear_261_103)"/>
</g>
<g id="Group_2" filter="url(#filter3_dd_261_103)">
<path id="Vector_4" fill-rule="evenodd" clip-rule="evenodd" d="M4186.29 2025.98C4214.93 2054.68 4248.95 2077.43 4286.41 2092.94C4323.86 2108.45 4364.01 2116.4 4404.55 2116.35C4487.51 2116.35 4565.28 2083.39 4622.81 2025.98C4651.5 1997.35 4674.26 1963.33 4689.76 1925.87C4705.27 1888.42 4713.23 1848.27 4713.17 1807.73C4713.17 1724.77 4680.21 1647 4622.81 1589.47C4594.17 1560.78 4560.15 1538.02 4522.69 1522.51C4485.24 1507.01 4445.09 1499.05 4404.55 1499.11C4321.59 1499.11 4243.82 1532.07 4186.29 1589.47C4157.6 1618.11 4134.85 1652.13 4119.34 1689.58C4103.83 1727.04 4095.88 1767.19 4095.93 1807.73C4095.93 1890.68 4128.89 1968.46 4186.29 2025.98ZM4535.53 1938.71C4500.96 1973.27 4454.42 1992.9 4404.55 1992.9C4354.68 1992.9 4308.26 1973.15 4273.7 1938.58C4239.13 1904.02 4219.38 1857.72 4219.38 1807.73C4219.38 1757.73 4239.13 1711.44 4273.7 1676.87C4308.26 1642.31 4354.68 1622.55 4404.55 1622.55C4454.42 1622.55 4500.84 1642.31 4535.41 1676.87C4569.97 1711.44 4589.72 1757.85 4589.72 1807.73C4589.72 1857.6 4569.97 1904.02 4535.41 1938.58L4535.53 1938.71Z" fill="url(#paint3_linear_261_103)"/>
<path id="Vector_5" fill-rule="evenodd" clip-rule="evenodd" d="M4925 1039.01L4768.22 1127.15C4722.38 1102.57 4674.15 1082.72 4624.28 1067.9L4566.26 893.343C4562.19 881.034 4554.35 870.319 4543.84 862.719C4533.34 855.119 4520.71 851.018 4507.75 851H4288.5C4275.05 851.012 4261.96 855.42 4251.24 863.554C4240.52 871.688 4232.76 883.102 4229.12 896.059L4180.73 1069.26C4130.92 1084.33 4082.78 1104.43 4037.04 1129.25L3872.48 1046.67C3860.88 1040.85 3847.74 1038.85 3834.93 1040.93C3822.12 1043.01 3810.29 1049.08 3801.13 1058.27L3645.95 1213.32C3636.42 1222.85 3630.28 1235.24 3628.45 1248.59C3626.62 1261.94 3629.21 1275.53 3635.83 1287.27L3723.97 1444.05C3699.41 1489.72 3679.53 1537.87 3664.72 1587.99L3490.16 1646.01C3477.85 1650.08 3467.14 1657.92 3459.54 1668.42C3451.94 1678.93 3447.84 1691.56 3447.82 1704.52V1923.89C3447.83 1937.35 3452.24 1950.43 3460.37 1961.15C3468.51 1971.87 3479.92 1979.64 3492.88 1983.27L3666.08 2031.66C3681.14 2081.66 3701.26 2129.68 3726.07 2175.35L3643.48 2339.91C3637.67 2351.51 3635.66 2364.65 3637.75 2377.46C3639.83 2390.27 3645.9 2402.1 3655.09 2411.26L3810.14 2566.31C3819.67 2575.84 3832.06 2581.99 3845.41 2583.82C3858.76 2585.65 3872.34 2583.05 3884.08 2576.44L4040.86 2488.3C4086.54 2512.86 4134.69 2532.74 4184.81 2547.55L4242.83 2722.11C4246.9 2734.42 4254.74 2745.13 4265.24 2752.73C4275.75 2760.33 4288.38 2764.43 4301.34 2764.45H4520.71C4534.16 2764.44 4547.25 2760.03 4557.97 2751.9C4568.69 2743.76 4576.45 2732.35 4580.09 2719.39L4628.48 2546.19C4678.29 2531.12 4726.43 2511.02 4772.17 2486.2L4936.73 2568.78C4948.32 2574.61 4961.45 2576.64 4974.26 2574.58C4987.07 2572.52 4998.9 2566.47 5008.08 2557.3L5163.13 2402.13C5172.66 2392.6 5178.81 2380.21 5180.64 2366.86C5182.46 2353.51 5179.87 2339.92 5173.26 2328.18L5085.11 2171.4C5109.68 2125.73 5129.56 2077.58 5144.37 2027.46L5318.93 1969.44C5331.23 1965.37 5341.95 1957.53 5349.55 1947.02C5357.15 1936.52 5361.25 1923.89 5361.27 1910.93V1691.68C5361.26 1678.23 5356.85 1665.14 5348.71 1654.42C5340.58 1643.71 5329.17 1635.94 5316.21 1632.3L5143.01 1583.91C5127.94 1534.1 5107.84 1485.96 5083.02 1440.22L5165.6 1275.66C5171.43 1264.07 5173.46 1250.94 5171.4 1238.13C5169.34 1225.32 5163.29 1213.49 5154.12 1204.31L4998.95 1049.26C4989.42 1039.73 4977.03 1033.58 4963.68 1031.75C4950.33 1029.93 4936.74 1032.4 4925 1039.01ZM4798.59 1251.84L4944.75 1169.5L5035.24 1259.98L4957.84 1414.29C4953.18 1423.61 4950.95 1433.94 4951.36 1444.35C4951.77 1454.75 4954.81 1464.88 4960.18 1473.8C4992.9 1528.11 5017.46 1587.12 5033.02 1648.85C5035.66 1659.41 5041.05 1669.08 5048.64 1676.88C5056.23 1684.69 5065.74 1690.35 5076.23 1693.29L5237.82 1738.47V1866.49L5074 1920.8C5064.12 1924.08 5055.22 1929.8 5048.14 1937.45C5041.06 1945.09 5036.03 1954.4 5033.51 1964.5C5018.22 2026.18 4993.89 2085.25 4961.3 2139.8C4955.7 2149.14 4952.67 2159.79 4952.52 2170.67C4952.37 2181.55 4955.1 2192.28 4960.43 2201.77L5042.77 2347.93L4952.28 2438.42L4797.97 2361.02C4788.66 2356.36 4778.32 2354.13 4767.92 2354.54C4757.52 2354.95 4747.39 2357.99 4738.47 2363.37C4684.15 2396.08 4625.15 2420.65 4563.42 2436.2C4552.86 2438.84 4543.19 2444.23 4535.38 2451.82C4527.58 2459.41 4521.92 2468.93 4518.98 2479.41L4473.8 2641H4345.91L4291.59 2477.19C4288.3 2467.28 4282.56 2458.37 4274.89 2451.29C4267.23 2444.21 4257.9 2439.19 4247.76 2436.69C4186.09 2421.4 4127.02 2397.07 4072.47 2364.48C4063.13 2358.88 4052.48 2355.85 4041.6 2355.7C4030.71 2355.55 4019.98 2358.28 4010.5 2363.61L3864.33 2445.95L3773.85 2355.47L3851.25 2201.15C3855.91 2191.84 3858.13 2181.51 3857.72 2171.1C3857.31 2160.7 3854.28 2150.57 3848.9 2141.65C3816.12 2087.22 3791.58 2028.23 3776.07 1966.6C3773.42 1956.04 3768.04 1946.37 3760.45 1938.57C3752.86 1930.76 3743.34 1925.1 3732.86 1922.16L3571.27 1876.98V1749.09L3735.08 1694.77C3744.96 1691.47 3753.85 1685.71 3760.9 1678.05C3767.96 1670.39 3772.97 1661.06 3775.45 1650.95C3790.88 1589.22 3815.32 1530.09 3847.79 1475.65C3853.39 1466.31 3856.41 1455.66 3856.56 1444.78C3856.72 1433.9 3853.99 1423.17 3848.66 1413.68L3766.32 1267.51L3856.8 1177.03L4011.11 1254.43C4020.42 1259.09 4030.76 1261.32 4041.17 1260.91C4051.57 1260.5 4061.7 1257.46 4070.62 1252.08C4124.93 1219.37 4183.94 1194.8 4245.67 1179.25C4256.22 1176.61 4265.9 1171.22 4273.7 1163.63C4281.51 1156.04 4287.17 1146.52 4290.11 1136.04L4335.29 974.448H4463.3L4517.62 1138.26C4520.92 1148.13 4526.65 1157 4534.29 1164.06C4541.93 1171.12 4551.23 1176.13 4561.32 1178.63C4623.05 1194.06 4682.18 1218.51 4736.62 1250.97C4745.96 1256.57 4756.61 1259.59 4767.49 1259.75C4778.37 1259.9 4789.1 1257.17 4798.59 1251.84Z" fill="url(#paint4_linear_261_103)"/>
</g>
<g id="Projects" filter="url(#filter4_dd_261_103)">
<mask id="path-6-outside-1_261_103" maskUnits="userSpaceOnUse" x="3024.05" y="95.2886" width="1517" height="424" fill="black">
<rect fill="white" x="3024.05" y="95.2886" width="1517" height="424"/>
<path d="M3147.65 153.938C3185.45 153.938 3213.11 161.326 3230.64 176.103C3248.51 190.536 3257.44 213.045 3257.44 243.629C3257.44 273.869 3248.51 296.206 3230.64 310.639C3212.77 324.728 3185.28 331.773 3148.16 331.773H3103.83V406H3061.05V153.938H3147.65ZM3152.8 293.629C3175.48 293.629 3191.29 289.333 3200.23 280.742C3209.5 272.151 3214.14 258.577 3214.14 240.021C3214.14 222.838 3208.82 210.639 3198.16 203.423C3187.51 196.206 3170.33 192.598 3146.62 192.598H3103.83V293.629H3152.8Z"/>
<path d="M3342.66 323.526V406H3302.45V214.247H3342.66V252.392C3349.19 240.364 3357.95 230.57 3368.95 223.01C3380.29 215.45 3392.14 211.498 3404.51 211.155L3405.03 251.876H3402.97C3383.38 251.876 3368.43 258.234 3358.12 270.948C3347.81 283.663 3342.66 301.189 3342.66 323.526Z"/>
<path d="M3533.66 373.01C3551.19 373.01 3565.62 367.168 3576.96 355.484C3588.64 343.801 3594.49 328.68 3594.49 310.124C3594.49 291.567 3588.64 276.447 3576.96 264.763C3565.62 253.079 3551.19 247.237 3533.66 247.237C3516.14 247.237 3501.7 253.079 3490.36 264.763C3479.02 276.447 3473.35 291.567 3473.35 310.124C3473.35 328.68 3479.02 343.629 3490.36 354.969C3501.7 366.996 3516.14 373.01 3533.66 373.01ZM3533.66 409.093C3504.8 409.093 3480.74 399.643 3461.5 380.742C3442.25 361.498 3432.63 337.959 3432.63 310.124C3432.63 282.289 3442.25 258.921 3461.5 240.021C3480.74 220.777 3504.8 211.155 3533.66 211.155C3562.53 211.155 3586.58 220.777 3605.83 240.021C3625.07 258.921 3634.69 282.289 3634.69 310.124C3634.69 336.928 3625.07 360.295 3605.83 380.227C3586.58 399.471 3562.53 409.093 3533.66 409.093Z"/>
<path d="M3680.38 214.247H3720.59V416.309C3720.59 436.24 3714.57 452.22 3702.55 464.247C3690.86 476.275 3676.26 482.289 3658.73 482.289C3640.86 482.289 3625.05 475.931 3611.31 463.216L3629.87 433.32C3638.46 441.223 3646.88 445.175 3655.12 445.175C3671.96 445.175 3680.38 435.21 3680.38 415.278V214.247ZM3674.71 157.546C3674.71 150.673 3677.12 144.832 3681.93 140.021C3687.08 134.866 3693.1 132.289 3699.97 132.289C3706.84 132.289 3712.85 134.866 3718.01 140.021C3723.16 144.832 3725.74 150.673 3725.74 157.546C3725.74 164.763 3723.16 170.948 3718.01 176.103C3712.85 180.914 3706.84 183.32 3699.97 183.32C3693.1 183.32 3687.08 180.742 3681.93 175.588C3677.12 171.12 3674.71 165.106 3674.71 157.546Z"/>
<path d="M3957.85 327.649H3807.34C3808.37 341.395 3814.73 352.564 3826.41 361.155C3838.09 369.746 3851.67 374.041 3867.13 374.041C3891.53 374.041 3909.74 366.481 3921.77 351.361L3944.97 376.618C3924.35 398.268 3897.37 409.093 3864.04 409.093C3836.55 409.093 3813.52 399.986 3794.97 381.773C3776.41 363.56 3767.13 339.505 3767.13 309.608C3767.13 280.399 3776.58 256.687 3795.48 238.474C3814.38 220.261 3837.23 211.155 3864.04 211.155C3890.84 211.155 3913.18 219.23 3931.05 235.381C3948.92 251.533 3957.85 273.01 3957.85 299.814V327.649ZM3917.65 295.691C3917.65 280.227 3912.66 268.027 3902.7 259.093C3893.08 250.158 3880.53 245.691 3865.07 245.691C3849.6 245.691 3836.03 250.33 3824.35 259.608C3813.01 268.887 3807.34 280.914 3807.34 295.691H3917.65Z"/>
<path d="M3989.76 310.124C3989.76 281.258 3999.73 257.546 4019.66 238.99C4039.59 220.433 4064.16 211.155 4093.37 211.155C4122.23 211.155 4146.63 221.12 4166.56 241.051L4142.85 270.433C4126.36 256 4109.69 248.783 4092.85 248.783C4075.67 248.783 4060.89 254.454 4048.52 265.794C4036.5 276.79 4030.48 291.051 4030.48 308.577C4030.48 326.447 4036.5 341.567 4048.52 353.938C4060.89 365.966 4076.01 371.979 4093.88 371.979C4111.75 371.979 4128.76 363.904 4144.91 347.753L4168.63 373.526C4144.23 397.237 4117.25 409.093 4087.7 409.093C4060.21 409.093 4037.01 399.986 4018.11 381.773C3999.21 363.216 3989.76 339.333 3989.76 310.124Z"/>
<path d="M4259.65 246.722V344.144C4259.65 353.423 4262.06 360.811 4266.87 366.309C4272.02 371.464 4278.89 374.041 4287.49 374.041C4295.39 374.041 4303.64 369.746 4312.23 361.155L4328.72 390.021C4314.29 402.735 4298.65 409.093 4281.82 409.093C4264.29 409.093 4249.51 403.079 4237.49 391.052C4225.46 378.68 4219.44 362.701 4219.44 343.113V246.722H4195.22V214.247H4219.44V153.938H4259.65V214.247H4310.17V246.722H4259.65Z"/>
<path d="M4427.02 409.093C4396.1 409.093 4368.26 399.471 4343.52 380.227L4363.11 348.783C4385.1 365.622 4406.75 374.041 4428.06 374.041C4436.99 374.041 4444.03 371.979 4449.19 367.856C4454.69 363.388 4457.44 357.89 4457.44 351.361C4457.44 341.739 4444.72 333.148 4419.29 325.588C4418.6 325.244 4417.75 324.9 4416.71 324.557C4416.03 324.213 4415.51 324.041 4415.17 324.041C4375.31 313.388 4355.37 295.347 4355.37 269.917C4355.37 252.048 4362.08 237.787 4375.48 227.134C4389.22 216.481 4407.26 211.155 4429.6 211.155C4451.59 211.155 4472.56 217.684 4492.49 230.742L4477.54 260.639C4462.08 250.33 4445.07 245.175 4426.51 245.175C4404.86 245.175 4394.03 252.048 4394.03 265.794C4394.03 271.636 4396.1 275.931 4400.22 278.68C4404.69 281.086 4411.9 283.491 4421.87 285.897C4436.99 290.021 4449.7 294.144 4460.01 298.268C4466.89 301.361 4472.9 304.625 4478.06 308.062C4491.11 316.996 4497.64 330.57 4497.64 348.783C4497.64 366.653 4490.94 381.258 4477.54 392.598C4464.48 403.594 4447.64 409.093 4427.02 409.093Z"/>
</mask>
<path d="M3147.65 153.938C3185.45 153.938 3213.11 161.326 3230.64 176.103C3248.51 190.536 3257.44 213.045 3257.44 243.629C3257.44 273.869 3248.51 296.206 3230.64 310.639C3212.77 324.728 3185.28 331.773 3148.16 331.773H3103.83V406H3061.05V153.938H3147.65ZM3152.8 293.629C3175.48 293.629 3191.29 289.333 3200.23 280.742C3209.5 272.151 3214.14 258.577 3214.14 240.021C3214.14 222.838 3208.82 210.639 3198.16 203.423C3187.51 196.206 3170.33 192.598 3146.62 192.598H3103.83V293.629H3152.8Z" stroke="url(#paint5_linear_261_103)" stroke-width="74" shape-rendering="crispEdges" mask="url(#path-6-outside-1_261_103)"/>
<path d="M3342.66 323.526V406H3302.45V214.247H3342.66V252.392C3349.19 240.364 3357.95 230.57 3368.95 223.01C3380.29 215.45 3392.14 211.498 3404.51 211.155L3405.03 251.876H3402.97C3383.38 251.876 3368.43 258.234 3358.12 270.948C3347.81 283.663 3342.66 301.189 3342.66 323.526Z" stroke="url(#paint6_linear_261_103)" stroke-width="74" shape-rendering="crispEdges" mask="url(#path-6-outside-1_261_103)"/>
<path d="M3533.66 373.01C3551.19 373.01 3565.62 367.168 3576.96 355.484C3588.64 343.801 3594.49 328.68 3594.49 310.124C3594.49 291.567 3588.64 276.447 3576.96 264.763C3565.62 253.079 3551.19 247.237 3533.66 247.237C3516.14 247.237 3501.7 253.079 3490.36 264.763C3479.02 276.447 3473.35 291.567 3473.35 310.124C3473.35 328.68 3479.02 343.629 3490.36 354.969C3501.7 366.996 3516.14 373.01 3533.66 373.01ZM3533.66 409.093C3504.8 409.093 3480.74 399.643 3461.5 380.742C3442.25 361.498 3432.63 337.959 3432.63 310.124C3432.63 282.289 3442.25 258.921 3461.5 240.021C3480.74 220.777 3504.8 211.155 3533.66 211.155C3562.53 211.155 3586.58 220.777 3605.83 240.021C3625.07 258.921 3634.69 282.289 3634.69 310.124C3634.69 336.928 3625.07 360.295 3605.83 380.227C3586.58 399.471 3562.53 409.093 3533.66 409.093Z" stroke="url(#paint7_linear_261_103)" stroke-width="74" shape-rendering="crispEdges" mask="url(#path-6-outside-1_261_103)"/>
<path d="M3680.38 214.247H3720.59V416.309C3720.59 436.24 3714.57 452.22 3702.55 464.247C3690.86 476.275 3676.26 482.289 3658.73 482.289C3640.86 482.289 3625.05 475.931 3611.31 463.216L3629.87 433.32C3638.46 441.223 3646.88 445.175 3655.12 445.175C3671.96 445.175 3680.38 435.21 3680.38 415.278V214.247ZM3674.71 157.546C3674.71 150.673 3677.12 144.832 3681.93 140.021C3687.08 134.866 3693.1 132.289 3699.97 132.289C3706.84 132.289 3712.85 134.866 3718.01 140.021C3723.16 144.832 3725.74 150.673 3725.74 157.546C3725.74 164.763 3723.16 170.948 3718.01 176.103C3712.85 180.914 3706.84 183.32 3699.97 183.32C3693.1 183.32 3687.08 180.742 3681.93 175.588C3677.12 171.12 3674.71 165.106 3674.71 157.546Z" stroke="url(#paint8_linear_261_103)" stroke-width="74" shape-rendering="crispEdges" mask="url(#path-6-outside-1_261_103)"/>
<path d="M3957.85 327.649H3807.34C3808.37 341.395 3814.73 352.564 3826.41 361.155C3838.09 369.746 3851.67 374.041 3867.13 374.041C3891.53 374.041 3909.74 366.481 3921.77 351.361L3944.97 376.618C3924.35 398.268 3897.37 409.093 3864.04 409.093C3836.55 409.093 3813.52 399.986 3794.97 381.773C3776.41 363.56 3767.13 339.505 3767.13 309.608C3767.13 280.399 3776.58 256.687 3795.48 238.474C3814.38 220.261 3837.23 211.155 3864.04 211.155C3890.84 211.155 3913.18 219.23 3931.05 235.381C3948.92 251.533 3957.85 273.01 3957.85 299.814V327.649ZM3917.65 295.691C3917.65 280.227 3912.66 268.027 3902.7 259.093C3893.08 250.158 3880.53 245.691 3865.07 245.691C3849.6 245.691 3836.03 250.33 3824.35 259.608C3813.01 268.887 3807.34 280.914 3807.34 295.691H3917.65Z" stroke="url(#paint9_linear_261_103)" stroke-width="74" shape-rendering="crispEdges" mask="url(#path-6-outside-1_261_103)"/>
<path d="M3989.76 310.124C3989.76 281.258 3999.73 257.546 4019.66 238.99C4039.59 220.433 4064.16 211.155 4093.37 211.155C4122.23 211.155 4146.63 221.12 4166.56 241.051L4142.85 270.433C4126.36 256 4109.69 248.783 4092.85 248.783C4075.67 248.783 4060.89 254.454 4048.52 265.794C4036.5 276.79 4030.48 291.051 4030.48 308.577C4030.48 326.447 4036.5 341.567 4048.52 353.938C4060.89 365.966 4076.01 371.979 4093.88 371.979C4111.75 371.979 4128.76 363.904 4144.91 347.753L4168.63 373.526C4144.23 397.237 4117.25 409.093 4087.7 409.093C4060.21 409.093 4037.01 399.986 4018.11 381.773C3999.21 363.216 3989.76 339.333 3989.76 310.124Z" stroke="url(#paint10_linear_261_103)" stroke-width="74" shape-rendering="crispEdges" mask="url(#path-6-outside-1_261_103)"/>
<path d="M4259.65 246.722V344.144C4259.65 353.423 4262.06 360.811 4266.87 366.309C4272.02 371.464 4278.89 374.041 4287.49 374.041C4295.39 374.041 4303.64 369.746 4312.23 361.155L4328.72 390.021C4314.29 402.735 4298.65 409.093 4281.82 409.093C4264.29 409.093 4249.51 403.079 4237.49 391.052C4225.46 378.68 4219.44 362.701 4219.44 343.113V246.722H4195.22V214.247H4219.44V153.938H4259.65V214.247H4310.17V246.722H4259.65Z" stroke="url(#paint11_linear_261_103)" stroke-width="74" shape-rendering="crispEdges" mask="url(#path-6-outside-1_261_103)"/>
<path d="M4427.02 409.093C4396.1 409.093 4368.26 399.471 4343.52 380.227L4363.11 348.783C4385.1 365.622 4406.75 374.041 4428.06 374.041C4436.99 374.041 4444.03 371.979 4449.19 367.856C4454.69 363.388 4457.44 357.89 4457.44 351.361C4457.44 341.739 4444.72 333.148 4419.29 325.588C4418.6 325.244 4417.75 324.9 4416.71 324.557C4416.03 324.213 4415.51 324.041 4415.17 324.041C4375.31 313.388 4355.37 295.347 4355.37 269.917C4355.37 252.048 4362.08 237.787 4375.48 227.134C4389.22 216.481 4407.26 211.155 4429.6 211.155C4451.59 211.155 4472.56 217.684 4492.49 230.742L4477.54 260.639C4462.08 250.33 4445.07 245.175 4426.51 245.175C4404.86 245.175 4394.03 252.048 4394.03 265.794C4394.03 271.636 4396.1 275.931 4400.22 278.68C4404.69 281.086 4411.9 283.491 4421.87 285.897C4436.99 290.021 4449.7 294.144 4460.01 298.268C4466.89 301.361 4472.9 304.625 4478.06 308.062C4491.11 316.996 4497.64 330.57 4497.64 348.783C4497.64 366.653 4490.94 381.258 4477.54 392.598C4464.48 403.594 4447.64 409.093 4427.02 409.093Z" stroke="url(#paint12_linear_261_103)" stroke-width="74" shape-rendering="crispEdges" mask="url(#path-6-outside-1_261_103)"/>
</g>
</g>
<defs>
<filter id="filter0_d_261_103" x="275.17" y="95.2886" width="5090.1" height="4252.3" filterUnits="userSpaceOnUse" color-interpolation-filters="sRGB">
<feFlood flood-opacity="0" result="BackgroundImageFix"/>
<feColorMatrix in="SourceAlpha" type="matrix" values="0 0 0 0 0 0 0 0 0 0 0 0 0 0 0 0 0 0 127 0" result="hardAlpha"/>
<feOffset dy="4"/>
<feGaussianBlur stdDeviation="2"/>
<feComposite in2="hardAlpha" operator="out"/>
<feColorMatrix type="matrix" values="0 0 0 0 0 0 0 0 0 0 0 0 0 0 0 0 0 0 0.25 0"/>
<feBlend mode="normal" in2="BackgroundImageFix" result="effect1_dropShadow_261_103"/>
<feBlend mode="normal" in="SourceGraphic" in2="effect1_dropShadow_261_103" result="shape"/>
</filter>
<filter id="filter1_dd_261_103" x="0.169922" y="1577.17" width="2550.65" height="2686.29" filterUnits="userSpaceOnUse" color-interpolation-filters="sRGB">
<feFlood flood-opacity="0" result="BackgroundImageFix"/>
<feColorMatrix in="SourceAlpha" type="matrix" values="0 0 0 0 0 0 0 0 0 0 0 0 0 0 0 0 0 0 127 0" result="hardAlpha"/>
<feOffset dy="-153"/>
<feGaussianBlur stdDeviation="125"/>
<feComposite in2="hardAlpha" operator="out"/>
<feColorMatrix type="matrix" values="0 0 0 0 0.0431373 0 0 0 0 0.482353 0 0 0 0 0.721569 0 0 0 1 0"/>
<feBlend mode="normal" in2="BackgroundImageFix" result="effect1_dropShadow_261_103"/>
<feColorMatrix in="SourceAlpha" type="matrix" values="0 0 0 0 0 0 0 0 0 0 0 0 0 0 0 0 0 0 127 0" result="hardAlpha"/>
<feOffset dx="-29" dy="107"/>
<feGaussianBlur stdDeviation="125"/>
<feComposite in2="hardAlpha" operator="out"/>
<feColorMatrix type="matrix" values="0 0 0 0 0.92 0 0 0 0 0 0 0 0 0 1 0 0 0 1 0"/>
<feBlend mode="normal" in2="effect1_dropShadow_261_103" result="effect2_dropShadow_261_103"/>
<feBlend mode="normal" in="SourceGraphic" in2="effect2_dropShadow_261_103" result="shape"/>
</filter>
<filter id="filter2_dd_261_103" x="1235.27" y="450.585" width="2974" height="4246" filterUnits="userSpaceOnUse" color-interpolation-filters="sRGB">
<feFlood flood-opacity="0" result="BackgroundImageFix"/>
<feColorMatrix in="SourceAlpha" type="matrix" values="0 0 0 0 0 0 0 0 0 0 0 0 0 0 0 0 0 0 127 0" result="hardAlpha"/>
<feOffset dy="-153"/>
<feGaussianBlur stdDeviation="125"/>
<feComposite in2="hardAlpha" operator="out"/>
<feColorMatrix type="matrix" values="0 0 0 0 0.0431373 0 0 0 0 0.482353 0 0 0 0 0.721569 0 0 0 1 0"/>
<feBlend mode="normal" in2="BackgroundImageFix" result="effect1_dropShadow_261_103"/>
<feColorMatrix in="SourceAlpha" type="matrix" values="0 0 0 0 0 0 0 0 0 0 0 0 0 0 0 0 0 0 127 0" result="hardAlpha"/>
<feOffset dx="-29" dy="107"/>
<feGaussianBlur stdDeviation="125"/>
<feComposite in2="hardAlpha" operator="out"/>
<feColorMatrix type="matrix" values="0 0 0 0 0.92 0 0 0 0 0 0 0 0 0 1 0 0 0 1 0"/>
<feBlend mode="normal" in2="effect1_dropShadow_261_103" result="effect2_dropShadow_261_103"/>
<feBlend mode="normal" in="SourceGraphic" in2="effect2_dropShadow_261_103" result="shape"/>
</filter>
<filter id="filter3_dd_261_103" x="3168.82" y="448" width="2442.45" height="2673.45" filterUnits="userSpaceOnUse" color-interpolation-filters="sRGB">
<feFlood flood-opacity="0" result="BackgroundImageFix"/>
<feColorMatrix in="SourceAlpha" type="matrix" values="0 0 0 0 0 0 0 0 0 0 0 0 0 0 0 0 0 0 127 0" result="hardAlpha"/>
<feOffset dy="-153"/>
<feGaussianBlur stdDeviation="125"/>
<feComposite in2="hardAlpha" operator="out"/>
<feColorMatrix type="matrix" values="0 0 0 0 0.0431373 0 0 0 0 0.482353 0 0 0 0 0.721569 0 0 0 1 0"/>
<feBlend mode="normal" in2="BackgroundImageFix" result="effect1_dropShadow_261_103"/>
<feColorMatrix in="SourceAlpha" type="matrix" values="0 0 0 0 0 0 0 0 0 0 0 0 0 0 0 0 0 0 127 0" result="hardAlpha"/>
<feOffset dx="-29" dy="107"/>
<feGaussianBlur stdDeviation="125"/>
<feComposite in2="hardAlpha" operator="out"/>
<feColorMatrix type="matrix" values="0 0 0 0 0.92 0 0 0 0 0 0 0 0 0 1 0 0 0 1 0"/>
<feBlend mode="normal" in2="effect1_dropShadow_261_103" result="effect2_dropShadow_261_103"/>
<feBlend mode="normal" in="SourceGraphic" in2="effect2_dropShadow_261_103" result="shape"/>
</filter>
<filter id="filter4_dd_261_103" x="2961.05" y="0.288574" width="1808.26" height="698" filterUnits="userSpaceOnUse" color-interpolation-filters="sRGB">
<feFlood flood-opacity="0" result="BackgroundImageFix"/>
<feColorMatrix in="SourceAlpha" type="matrix" values="0 0 0 0 0 0 0 0 0 0 0 0 0 0 0 0 0 0 127 0" result="hardAlpha"/>
<feOffset dx="92" dy="42"/>
<feGaussianBlur stdDeviation="68.5"/>
<feComposite in2="hardAlpha" operator="out"/>
<feColorMatrix type="matrix" values="0 0 0 0 0.92 0 0 0 0 0 0 0 0 0 1 0 0 0 1 0"/>
<feBlend mode="normal" in2="BackgroundImageFix" result="effect1_dropShadow_261_103"/>
<feColorMatrix in="SourceAlpha" type="matrix" values="0 0 0 0 0 0 0 0 0 0 0 0 0 0 0 0 0 0 127 0" result="hardAlpha"/>
<feOffset dx="28" dy="9"/>
<feGaussianBlur stdDeviation="45.5"/>
<feComposite in2="hardAlpha" operator="out"/>
<feColorMatrix type="matrix" values="0 0 0 0 0.0431373 0 0 0 0 0.482353 0 0 0 0 0.721569 0 0 0 1 0"/>
<feBlend mode="normal" in2="effect1_dropShadow_261_103" result="effect2_dropShadow_261_103"/>
<feBlend mode="normal" in="SourceGraphic" in2="effect2_dropShadow_261_103" result="shape"/>
</filter>
<linearGradient id="paint0_linear_261_103" x1="1246.71" y1="2637.74" x2="1333.3" y2="3248.88" gradientUnits="userSpaceOnUse">
<stop stop-color="#0B7BB8"/>
<stop offset="1" stop-color="#EB00FF"/>
</linearGradient>
<linearGradient id="paint1_linear_261_103" x1="1155.78" y1="1996.05" x2="1424.21" y2="3890.57" gradientUnits="userSpaceOnUse">
<stop stop-color="#0B7BB8"/>
<stop offset="1" stop-color="#EB00FF"/>
</linearGradient>
<linearGradient id="paint2_linear_261_103" x1="2736.77" y1="853.585" x2="2736.77" y2="4339.59" gradientUnits="userSpaceOnUse">
<stop stop-color="#0B7BB8"/>
<stop offset="1" stop-color="#EB00FF"/>
</linearGradient>
<linearGradient id="paint3_linear_261_103" x1="4404.55" y1="1499.11" x2="4404.55" y2="2116.35" gradientUnits="userSpaceOnUse">
<stop stop-color="#0B7BB8"/>
<stop offset="1" stop-color="#EB00FF"/>
</linearGradient>
<linearGradient id="paint4_linear_261_103" x1="4404.54" y1="851" x2="4404.54" y2="2764.45" gradientUnits="userSpaceOnUse">
<stop stop-color="#0B7BB8"/>
<stop offset="1" stop-color="#EB00FF"/>
</linearGradient>
<linearGradient id="paint5_linear_261_103" x1="2688.5" y1="-801" x2="4633.5" y2="900" gradientUnits="userSpaceOnUse">
<stop stop-color="#0B7BB8"/>
<stop offset="1" stop-color="#EB00FF"/>
</linearGradient>
<linearGradient id="paint6_linear_261_103" x1="2688.5" y1="-801" x2="4633.5" y2="900" gradientUnits="userSpaceOnUse">
<stop stop-color="#0B7BB8"/>
<stop offset="1" stop-color="#EB00FF"/>
</linearGradient>
<linearGradient id="paint7_linear_261_103" x1="2688.5" y1="-801" x2="4633.5" y2="900" gradientUnits="userSpaceOnUse">
<stop stop-color="#0B7BB8"/>
<stop offset="1" stop-color="#EB00FF"/>
</linearGradient>
<linearGradient id="paint8_linear_261_103" x1="2688.5" y1="-801" x2="4633.5" y2="900" gradientUnits="userSpaceOnUse">
<stop stop-color="#0B7BB8"/>
<stop offset="1" stop-color="#EB00FF"/>
</linearGradient>
<linearGradient id="paint9_linear_261_103" x1="2688.5" y1="-801" x2="4633.5" y2="900" gradientUnits="userSpaceOnUse">
<stop stop-color="#0B7BB8"/>
<stop offset="1" stop-color="#EB00FF"/>
</linearGradient>
<linearGradient id="paint10_linear_261_103" x1="2688.5" y1="-801" x2="4633.5" y2="900" gradientUnits="userSpaceOnUse">
<stop stop-color="#0B7BB8"/>
<stop offset="1" stop-color="#EB00FF"/>
</linearGradient>
<linearGradient id="paint11_linear_261_103" x1="2688.5" y1="-801" x2="4633.5" y2="900" gradientUnits="userSpaceOnUse">
<stop stop-color="#0B7BB8"/>
<stop offset="1" stop-color="#EB00FF"/>
</linearGradient>
<linearGradient id="paint12_linear_261_103" x1="2688.5" y1="-801" x2="4633.5" y2="900" gradientUnits="userSpaceOnUse">
<stop stop-color="#0B7BB8"/>
<stop offset="1" stop-color="#EB00FF"/>
</linearGradient>
</defs>
</svg>
