<svg viewBox="0 0 4888 5270" fill="transparent" xmlns="http://www.w3.org/2000/svg">
<g id="Group 1921">
<g id="My" filter="url(#filter0_d_261_142)">
<path d="M1751.07 1939.5H1784.57V1906V1417.43L2001.54 1850.09L2010.81 1868.57H2031.48H2107.36H2127.98L2137.27 1850.16L2355.92 1416.69V1906V1939.5H2389.42H2524.68H2558.18V1906V1099.4V1065.9H2524.68H2313.55H2292.51L2283.37 1084.85L2069.52 1528.44L1857.16 1084.93L1848.05 1065.9H1826.95H1614.16H1580.66V1099.4V1906V1939.5H1614.16H1751.07ZM2625.43 2072.47L2612.05 2095.89L2632.07 2113.96C2682.9 2159.83 2741.9 2183.62 2807.92 2183.62C2854.51 2183.62 2897.48 2169.89 2936 2142.93C2974.35 2116.08 3003.4 2079.78 3023.28 2035.07L3023.48 2034.62L3023.66 2034.16L3322.22 1305.09L3341.14 1258.89H3291.22H3152.66H3130.09L3121.61 1279.81L2969.43 1655.47L2815.84 1279.72L2807.32 1258.89H2784.83H2646.27H2596.62L2615.21 1304.93C2698.22 1510.55 2760.45 1665.91 2801.91 1771.07C2822.65 1823.67 2838.14 1863.59 2848.43 1890.9C2853.58 1904.59 2857.34 1914.9 2859.79 1921.97C2860.64 1924.44 2861.28 1926.37 2861.74 1927.81C2860.94 1942.41 2855.24 1955.76 2842.95 1968.77L2842.64 1969.1L2842.34 1969.44C2829.85 1983.39 2815.77 1989.61 2798.02 1989.61C2780.15 1989.61 2759.84 1981.92 2736.58 1960.52L2705.66 1932.07L2684.81 1968.55L2625.43 2072.47Z" stroke="url(#paint0_linear_261_142)" stroke-width="67" shape-rendering="crispEdges"/>
</g>
<g id="Skills" filter="url(#filter1_d_261_142)">
<path d="M805.317 3145.15L804.343 3144.43L803.307 3143.8C776.343 3127.39 761.733 3101.43 761.733 3060.16C761.733 3024.28 775.149 2998.9 802.108 2980.51L802.212 2980.44L802.316 2980.37C832.9 2959.09 874.445 2947.27 929.166 2947.27C982.764 2947.27 1037.44 2956.94 1093.31 2976.57L1093.62 2976.67L1093.93 2976.78C1149.85 2994.91 1192.78 3018.57 1223.99 3046.95L1246.54 3067.44L1264.17 3042.6L1368.5 2895.58L1383.08 2875.04L1363.6 2859.07C1244.54 2761.51 1101.61 2713.06 936.279 2713.06C813.116 2713.06 709.63 2744.33 628.007 2808.89C544.941 2872.98 503.815 2962.61 503.815 3074.39C503.815 3187.78 539.944 3276.52 616.05 3335.08C679.637 3386.5 789.031 3428.59 939.61 3463.46C1026.09 3483.91 1081.27 3505.83 1109.61 3527.41L1109.85 3527.6L1110.09 3527.77C1137.64 3547.81 1151.13 3574.35 1151.13 3610.27C1151.13 3645.24 1136.82 3673.78 1105.32 3697.52C1073.25 3720.12 1029.53 3732.65 971.846 3732.65C856.624 3732.65 740.9 3684.78 624.241 3585.01L603.523 3567.29L586.004 3588.18L462.705 3735.19L445.754 3755.4L465.566 3772.81C613.956 3903.27 781.42 3969.23 967.104 3969.23C1095.05 3969.23 1201.22 3936.35 1283.04 3868.21C1366.91 3799.7 1409.05 3708.97 1409.05 3598.41C1409.05 3494.86 1377.95 3411.64 1312.43 3353.13C1250.6 3296.52 1154.58 3254.06 1027.95 3223.6L1027.94 3223.6C969.202 3209.5 921.208 3195.73 883.711 3182.34C845.79 3168.8 820.295 3156.22 805.317 3145.15ZM1783.78 3955H1810.78V3928V3687.84L1914.88 3583.75L2157.38 3943.1L2165.41 3955H2179.76H2407.39H2458.22L2429.77 3912.89L2081.56 3397.45L2400.79 3064.63L2444.62 3018.94H2381.31H2141.82H2130.28L2122.31 3027.28L1810.78 3353.25V2697.38V2670.38H1783.78H1598.84H1571.84V2697.38V3928V3955H1598.84H1783.78ZM2749.6 3955H2776.6V3928V3045.94V3018.94H2749.6H2564.66H2537.66V3045.94V3928V3955H2564.66H2749.6ZM3205.56 3955H3232.56V3928V2697.38V2670.38H3205.56H3020.61H2993.61V2697.38V3928V3955H3020.61H3205.56ZM3661.52 3955H3688.52V3928V2697.38V2670.38H3661.52H3476.57H3449.57V2697.38V3928V3955H3476.57H3661.52ZM3828.99 3795.17L3816.13 3815.82L3835.33 3830.76C3953.82 3922.91 4087.67 3969.23 4236.03 3969.23C4335.86 3969.23 4419.9 3942.49 4485.79 3887L4485.82 3886.98L4485.84 3886.96C4553.68 3829.56 4587.88 3754.78 4587.88 3664.8C4587.88 3573.67 4554.64 3502.15 4486.02 3455.2L4485.89 3455.11L4485.75 3455.02C4460.57 3438.23 4431.56 3422.52 4398.86 3407.81L4398.34 3407.58L4397.81 3407.36C4349.14 3387.89 4289.6 3368.62 4219.42 3349.48L4219.04 3349.37L4218.66 3349.28C4174.3 3338.57 4144.27 3328.37 4126.74 3319.2C4117.27 3312.49 4111.28 3302.12 4111.28 3283.05C4111.28 3259.88 4119.65 3245.15 4136.1 3234.71C4154.62 3222.95 4185.85 3215.21 4233.66 3215.21C4313.68 3215.21 4386.72 3237.33 4453.43 3281.81L4478.87 3298.77L4492.55 3271.41L4561.32 3133.89L4572.06 3112.4L4551.96 3099.23C4456.26 3036.53 4354.75 3004.71 4247.89 3004.71C4140.87 3004.71 4051.54 3030.27 3982.38 3083.88L3982.25 3083.98L3982.12 3084.08C3913.7 3138.46 3879.44 3212.01 3879.44 3302.02C3879.44 3368.61 3905.96 3425.73 3957.09 3472.01C4007.36 3517.52 4080.71 3552 4174.52 3577.07L4176.97 3577.73L4178.25 3578.37L4180.07 3578.98C4184.05 3580.3 4186.73 3581.42 4188.39 3582.25L4190.5 3583.31L4192.77 3583.98C4250.24 3601.07 4291.06 3618.7 4316.95 3636.2C4343.31 3654.01 4348.93 3667.86 4348.93 3676.66C4348.93 3697.78 4340.58 3715.61 4321.05 3731.51C4303.58 3745.46 4277.85 3753.99 4240.77 3753.99C4150.27 3753.99 4056.3 3718.3 3958.42 3643.37L3934.82 3625.29L3919.09 3650.53L3828.99 3795.17ZM2555.05 2685.4C2527.8 2712.65 2513.94 2746.42 2513.94 2785.11C2513.94 2825.28 2528.53 2859.93 2557.41 2887.2C2584.68 2916.08 2619.33 2930.67 2659.5 2930.67C2698.2 2930.67 2731.96 2916.82 2759.21 2889.57C2787.93 2860.85 2802.69 2825.55 2802.69 2785.11C2802.69 2746.11 2787.8 2712.38 2759.22 2685.39C2732.24 2656.81 2698.51 2641.93 2659.5 2641.93C2619.06 2641.93 2583.76 2656.69 2555.05 2685.4Z" stroke="#0B7BB8" stroke-width="54" shape-rendering="crispEdges"/>
</g>
<g id="Group 1919">
<path id="Vector" d="M1730.43 4210.74L2401 5216L3071.57 4210.74H4412.71C4501.64 4210.74 4586.92 4175.41 4649.8 4112.53C4712.68 4049.64 4748 3964.36 4748 3875.43V859.976C4748 815.958 4739.32 772.372 4722.47 731.709C4705.62 691.046 4680.92 654.103 4649.78 622.994C4618.64 591.884 4581.67 567.217 4541 550.402C4500.32 533.588 4456.73 524.956 4412.71 525H389.286C300.362 525 215.081 560.327 152.203 623.21C89.3246 686.093 54 771.381 54 860.311V3875.76C54 3964.69 89.3246 4049.98 152.203 4112.86C215.081 4175.75 300.362 4211.07 389.286 4211.07H1730.43V4210.74Z" stroke="url(#paint1_linear_261_142)" stroke-width="107" stroke-linecap="square" stroke-linejoin="round"/>
<g id="Line 10" filter="url(#filter2_d_261_142)">
<line x1="3076" y1="300.5" x2="4170" y2="300.5" stroke="#0B7BB8" stroke-width="109"/>
</g>
<g id="Line 11" filter="url(#filter3_d_261_142)">
<line x1="464" y1="300.5" x2="2679" y2="300.5" stroke="#0B7BB8" stroke-width="109"/>
</g>
<g id="Line 12" filter="url(#filter4_d_261_142)">
<line x1="284" y1="4475.5" x2="1734" y2="4475.5" stroke="#0B7BB8" stroke-width="109"/>
</g>
<g id="Line 13" filter="url(#filter5_d_261_142)">
<line x1="3188" y1="4475.5" x2="4638" y2="4475.5" stroke="#0B7BB8" stroke-width="109"/>
</g>
</g>
</g>
<defs>
<filter id="filter0_d_261_142" x="1297.16" y="786.402" width="2343.89" height="1684.72" filterUnits="userSpaceOnUse" color-interpolation-filters="sRGB">
<feFlood flood-opacity="0" result="BackgroundImageFix"/>
<feColorMatrix in="SourceAlpha" type="matrix" values="0 0 0 0 0 0 0 0 0 0 0 0 0 0 0 0 0 0 127 0" result="hardAlpha"/>
<feOffset dy="4"/>
<feGaussianBlur stdDeviation="125"/>
<feComposite in2="hardAlpha" operator="out"/>
<feColorMatrix type="matrix" values="0 0 0 0 0.0431373 0 0 0 0 0.482353 0 0 0 0 0.721569 0 0 0 1 0"/>
<feBlend mode="normal" in2="BackgroundImageFix" result="effect1_dropShadow_261_142"/>
<feBlend mode="normal" in="SourceGraphic" in2="effect1_dropShadow_261_142" result="shape"/>
</filter>
<filter id="filter1_d_261_142" x="158.115" y="2368.93" width="4706.76" height="1881.3" filterUnits="userSpaceOnUse" color-interpolation-filters="sRGB">
<feFlood flood-opacity="0" result="BackgroundImageFix"/>
<feColorMatrix in="SourceAlpha" type="matrix" values="0 0 0 0 0 0 0 0 0 0 0 0 0 0 0 0 0 0 127 0" result="hardAlpha"/>
<feOffset dy="4"/>
<feGaussianBlur stdDeviation="125"/>
<feComposite in2="hardAlpha" operator="out"/>
<feColorMatrix type="matrix" values="0 0 0 0 0 0 0 0 0 0.04 0 0 0 0 1 0 0 0 1 0"/>
<feBlend mode="normal" in2="BackgroundImageFix" result="effect1_dropShadow_261_142"/>
<feBlend mode="normal" in="SourceGraphic" in2="effect1_dropShadow_261_142" result="shape"/>
</filter>
<filter id="filter2_d_261_142" x="2826" y="0" width="1594" height="609" filterUnits="userSpaceOnUse" color-interpolation-filters="sRGB">
<feFlood flood-opacity="0" result="BackgroundImageFix"/>
<feColorMatrix in="SourceAlpha" type="matrix" values="0 0 0 0 0 0 0 0 0 0 0 0 0 0 0 0 0 0 127 0" result="hardAlpha"/>
<feOffset dy="4"/>
<feGaussianBlur stdDeviation="125"/>
<feComposite in2="hardAlpha" operator="out"/>
<feColorMatrix type="matrix" values="0 0 0 0 0.0431373 0 0 0 0 0.482353 0 0 0 0 0.721569 0 0 0 1 0"/>
<feBlend mode="normal" in2="BackgroundImageFix" result="effect1_dropShadow_261_142"/>
<feBlend mode="normal" in="SourceGraphic" in2="effect1_dropShadow_261_142" result="shape"/>
</filter>
<filter id="filter3_d_261_142" x="214" y="0" width="2715" height="609" filterUnits="userSpaceOnUse" color-interpolation-filters="sRGB">
<feFlood flood-opacity="0" result="BackgroundImageFix"/>
<feColorMatrix in="SourceAlpha" type="matrix" values="0 0 0 0 0 0 0 0 0 0 0 0 0 0 0 0 0 0 127 0" result="hardAlpha"/>
<feOffset dy="4"/>
<feGaussianBlur stdDeviation="125"/>
<feComposite in2="hardAlpha" operator="out"/>
<feColorMatrix type="matrix" values="0 0 0 0 0.0431373 0 0 0 0 0.482353 0 0 0 0 0.721569 0 0 0 1 0"/>
<feBlend mode="normal" in2="BackgroundImageFix" result="effect1_dropShadow_261_142"/>
<feBlend mode="normal" in="SourceGraphic" in2="effect1_dropShadow_261_142" result="shape"/>
</filter>
<filter id="filter4_d_261_142" x="34" y="4175" width="1950" height="609" filterUnits="userSpaceOnUse" color-interpolation-filters="sRGB">
<feFlood flood-opacity="0" result="BackgroundImageFix"/>
<feColorMatrix in="SourceAlpha" type="matrix" values="0 0 0 0 0 0 0 0 0 0 0 0 0 0 0 0 0 0 127 0" result="hardAlpha"/>
<feOffset dy="4"/>
<feGaussianBlur stdDeviation="125"/>
<feComposite in2="hardAlpha" operator="out"/>
<feColorMatrix type="matrix" values="0 0 0 0 0.0431373 0 0 0 0 0.482353 0 0 0 0 0.721569 0 0 0 1 0"/>
<feBlend mode="normal" in2="BackgroundImageFix" result="effect1_dropShadow_261_142"/>
<feBlend mode="normal" in="SourceGraphic" in2="effect1_dropShadow_261_142" result="shape"/>
</filter>
<filter id="filter5_d_261_142" x="2938" y="4175" width="1950" height="609" filterUnits="userSpaceOnUse" color-interpolation-filters="sRGB">
<feFlood flood-opacity="0" result="BackgroundImageFix"/>
<feColorMatrix in="SourceAlpha" type="matrix" values="0 0 0 0 0 0 0 0 0 0 0 0 0 0 0 0 0 0 127 0" result="hardAlpha"/>
<feOffset dy="4"/>
<feGaussianBlur stdDeviation="125"/>
<feComposite in2="hardAlpha" operator="out"/>
<feColorMatrix type="matrix" values="0 0 0 0 0.0431373 0 0 0 0 0.482353 0 0 0 0 0.721569 0 0 0 1 0"/>
<feBlend mode="normal" in2="BackgroundImageFix" result="effect1_dropShadow_261_142"/>
<feBlend mode="normal" in="SourceGraphic" in2="effect1_dropShadow_261_142" result="shape"/>
</filter>
<linearGradient id="paint0_linear_261_142" x1="49" y1="327" x2="4120.5" y2="2414" gradientUnits="userSpaceOnUse">
<stop stop-color="#0B7BB8"/>
<stop offset="1" stop-color="#EB00FF"/>
</linearGradient>
<linearGradient id="paint1_linear_261_142" x1="2401" y1="525" x2="2401" y2="5216" gradientUnits="userSpaceOnUse">
<stop stop-color="#0B7BB8"/>
<stop offset="1" stop-color="#EB00FF"/>
</linearGradient>
</defs>
</svg>
