<svg viewBox="0 0 409 409" fill="none" xmlns="http://www.w3.org/2000/svg">
<path d="M314.344 120.9L321.677 120.418C321.582 118.985 321.064 117.612 320.189 116.47C319.313 115.328 318.119 114.469 316.755 114C315.392 113.531 313.919 113.473 312.522 113.833C311.126 114.193 309.866 114.955 308.903 116.024L314.344 120.9ZM307.04 164.101C307.04 162.165 306.267 160.309 304.892 158.939C303.517 157.57 301.652 156.801 299.707 156.801C297.762 156.801 295.897 157.57 294.521 158.939C293.146 160.309 292.373 162.165 292.373 164.101H307.04ZM109.333 281.5V274.2C107.759 274.198 106.225 274.701 104.96 275.634C103.695 276.566 102.764 277.88 102.307 279.38C101.85 280.88 101.89 282.486 102.421 283.962C102.952 285.438 103.946 286.704 105.256 287.574L109.333 281.5ZM123.971 120.9L130.849 118.345C130.349 117.012 129.469 115.854 128.317 115.012C127.164 114.171 125.79 113.683 124.363 113.608C122.936 113.534 121.518 113.876 120.283 114.593C119.049 115.31 118.052 116.371 117.415 117.644L123.971 120.9ZM182.549 252.3L187.741 257.454C188.622 256.574 189.263 255.485 189.603 254.29C189.943 253.095 189.972 251.834 189.685 250.625C189.399 249.416 188.807 248.3 187.967 247.382C187.126 246.464 186.064 245.775 184.881 245.38L182.549 252.3ZM288.501 135.106L283.075 140.011L285.715 142.917L289.601 142.333L288.501 135.106ZM307.04 121.382C307.788 132.741 307.084 139.632 305.236 144.829C303.447 149.866 300.308 154.013 294.632 159.429L304.781 169.971C311.205 163.839 316.163 157.823 319.067 149.706C321.897 141.734 322.484 132.507 321.677 120.418L307.04 121.382ZM307.04 174.73V164.101H292.373V174.745H307.04V174.73ZM204.52 165.299V179.3H219.187V165.299H204.52ZM204.52 179.3V186.6H219.187V179.3H204.52ZM256.367 113.6C249.55 113.604 242.802 114.944 236.506 117.544C230.21 120.144 224.49 123.954 219.673 128.754C214.856 133.555 211.035 139.253 208.431 145.523C205.826 151.794 204.487 158.513 204.491 165.299H219.157C219.154 160.429 220.113 155.607 221.982 151.107C223.851 146.607 226.592 142.518 230.049 139.073C233.506 135.628 237.61 132.894 242.128 131.029C246.647 129.163 251.49 128.202 256.381 128.2V113.6H256.367ZM292.359 174.73C292.373 237.744 241.143 288.8 177.973 288.8V303.4C249.253 303.4 307.04 245.788 307.04 174.73H292.359ZM117.107 123.455C125.085 144.654 155.005 186.6 211.853 186.6V172C163.219 172 137.508 136.084 130.835 118.345L117.107 123.455ZM117.415 117.644C102.059 148.246 99.6973 177.942 110.859 203.229C121.991 228.444 145.941 247.832 180.232 259.22L184.881 245.38C153.275 234.868 133.284 217.756 124.279 197.346C115.303 177.008 116.608 151.94 130.541 124.156L117.415 117.644ZM177.357 247.146C168.528 255.95 141.981 274.2 109.333 274.2V288.8C146.968 288.8 177.049 268.126 187.741 257.454L177.357 247.146ZM293.943 130.215C289.201 124.98 283.407 120.796 276.936 117.933C270.465 115.071 263.462 113.595 256.381 113.6V128.2C266.956 128.2 276.475 132.741 283.075 140.011L293.943 130.215ZM289.601 142.333C301.284 140.433 311.953 134.586 319.815 125.776L308.903 116.024C303.311 122.312 295.722 126.502 287.401 127.893L289.601 142.333ZM105.256 287.574C129.324 303.546 154.551 303.4 177.973 303.4V288.8C154.067 288.8 133.269 288.639 113.411 275.426L105.256 287.574Z" fill="url(#paint0_linear_223_7)"/>
<g filter="url(#filter0_d_223_7)">
<circle cx="204.5" cy="200.5" r="180" stroke="#080B11" stroke-width="19" shape-rendering="crispEdges"/>
</g>
<defs>
<filter id="filter0_d_223_7" x="0" y="0" width="409" height="409" filterUnits="userSpaceOnUse" color-interpolation-filters="sRGB">
<feFlood flood-opacity="0" result="BackgroundImageFix"/>
<feColorMatrix in="SourceAlpha" type="matrix" values="0 0 0 0 0 0 0 0 0 0 0 0 0 0 0 0 0 0 127 0" result="hardAlpha"/>
<feOffset dy="4"/>
<feGaussianBlur stdDeviation="7.5"/>
<feComposite in2="hardAlpha" operator="out"/>
<feColorMatrix type="matrix" values="0 0 0 0 0.92 0 0 0 0 0 0 0 0 0 1 0 0 0 1 0"/>
<feBlend mode="normal" in2="BackgroundImageFix" result="effect1_dropShadow_223_7"/>
<feBlend mode="normal" in="SourceGraphic" in2="effect1_dropShadow_223_7" result="shape"/>
</filter>
<linearGradient id="paint0_linear_223_7" x1="211.994" y1="113.598" x2="211.994" y2="303.4" gradientUnits="userSpaceOnUse">
<stop stop-color="#0B7BB8"/>
<stop offset="1" stop-color="#EB00FF"/>
</linearGradient>
</defs>
</svg>
